<svg xmlns="http://www.w3.org/2000/svg" xmlns:xlink="http://www.w3.org/1999/xlink" version="1.1" x="0px" y="0px" viewBox="0 0 100 68.775" enable-background="new 0 0 100 55.02" xml:space="preserve"><path d="M82.672,16.696C75.019,27.1,62.962,33.247,50.005,33.247c-12.966,0-25.032-6.149-32.681-16.551h-5.213l0.431,0.652  c8.346,12.646,22.352,20.195,37.462,20.195c15.107,0,29.11-7.549,37.454-20.198l0.43-0.649H82.672z"/><path d="M48.378,37.26v11h4v-11H48.378z"/><path d="M63.877,34.419l4.684,11.035l3.682-1.563l-4.684-11.035L63.877,34.419z"/><path d="M76.975,27.423l7.325,9.375l3.152-2.463l-7.325-9.375L76.975,27.423z"/><path d="M32.877,32.798l-4.202,11.546l3.759,1.368l4.202-11.546L32.877,32.798z"/><path d="M20.477,25.273l-7.373,9.437l3.152,2.463l7.373-9.437L20.477,25.273z"/></svg>